<svg width="28" height="28" viewBox="0 0 28 28" fill="none" xmlns="http://www.w3.org/2000/svg">
<path d="M26.0422 9.25781V20.9996H23.915V9.25781H26.0422Z" fill="#FBFBFB"/>
<path d="M17.9005 9.10156C18.9329 9.10156 19.744 9.21501 20.334 9.4419C20.9239 9.65745 21.3436 10.0375 21.5932 10.582C21.8542 11.1152 21.9846 11.8753 21.9846 12.8623C21.9846 13.8493 21.8598 14.6151 21.6102 15.1596C21.372 15.7042 20.9693 16.0842 20.402 16.2998C19.8461 16.5153 19.1031 16.6231 18.1728 16.6231C17.6623 16.6231 17.1688 16.6061 16.6923 16.5721C16.2272 16.538 15.7904 16.4926 15.382 16.4359C14.9849 16.3792 14.6446 16.3225 14.361 16.2657C14.0774 16.1977 13.8788 16.141 13.7654 16.0956L13.8164 14.9554C14.4631 14.9554 15.1267 14.9554 15.8074 14.9554C16.4995 14.9554 17.1858 14.9554 17.8665 14.9554C18.3657 14.9441 18.7571 14.8817 19.0407 14.7682C19.3356 14.6548 19.5398 14.4506 19.6533 14.1556C19.7781 13.8493 19.8405 13.4182 19.8405 12.8623C19.8405 12.3064 19.7781 11.881 19.6533 11.5861C19.5398 11.2797 19.3356 11.0699 19.0407 10.9564C18.7571 10.8316 18.3657 10.7692 17.8665 10.7692C16.8682 10.7692 16.0116 10.7749 15.2969 10.7863C14.5822 10.7976 14.0944 10.8146 13.8335 10.8373L13.5952 9.25472C14.049 9.20934 14.4744 9.1753 14.8715 9.15261C15.2799 9.12993 15.7167 9.11858 16.1818 9.11858C16.6583 9.10724 17.2312 9.10156 17.9005 9.10156ZM15.7223 9.25472V20.9965H13.5952V9.25472H15.7223Z" fill="#FBFBFB"/>
<path d="M7.88328 9.25781C8.06479 9.25781 8.22362 9.30886 8.35975 9.41097C8.49589 9.51307 8.59232 9.64921 8.64904 9.81938L12.2056 20.9996H10.0274L7.33873 11.9465C7.29335 11.765 7.24797 11.5835 7.20259 11.402C7.15722 11.2204 7.11751 11.0446 7.08347 10.8744H6.607C6.57296 11.0446 6.53326 11.2204 6.48788 11.402C6.4425 11.5835 6.39145 11.765 6.33472 11.9465L3.66305 20.9996H1.48486L5.04143 9.81938C5.08681 9.64921 5.17756 9.51307 5.3137 9.41097C5.46118 9.30886 5.62568 9.25781 5.8072 9.25781H7.88328ZM9.85725 15.9795V17.6472H3.8162V15.9795H9.85725Z" fill="#FBFBFB"/>
</svg>
