<svg width="28" height="28" viewBox="0 0 28 28" fill="none" xmlns="http://www.w3.org/2000/svg">
<g clip-path="url(#clip0_637_2419)">
<mask id="path-1-inside-1_637_2419" fill="white">
<path fill-rule="evenodd" clip-rule="evenodd" d="M10.5 6.125C10.5 5.42881 10.7766 4.76113 11.2688 4.26884C11.7611 3.77656 12.4288 3.5 13.125 3.5H14.875C15.5712 3.5 16.2389 3.77656 16.7312 4.26884C17.2234 4.76113 17.5 5.42881 17.5 6.125V7.875C17.5 8.57119 17.2234 9.23887 16.7312 9.73116C16.2389 10.2234 15.5712 10.5 14.875 10.5V12.25H24.5C24.7321 12.25 24.9546 12.3422 25.1187 12.5063C25.2828 12.6704 25.375 12.8929 25.375 13.125V14.875C25.375 15.1071 25.2828 15.3296 25.1187 15.4937C24.9546 15.6578 24.7321 15.75 24.5 15.75C24.2679 15.75 24.0454 15.6578 23.8813 15.4937C23.7172 15.3296 23.625 15.1071 23.625 14.875V14H14.875V14.875C14.875 15.1071 14.7828 15.3296 14.6187 15.4937C14.4546 15.6578 14.2321 15.75 14 15.75C13.7679 15.75 13.5454 15.6578 13.3813 15.4937C13.2172 15.3296 13.125 15.1071 13.125 14.875V14H4.375V14.875C4.375 15.1071 4.28281 15.3296 4.11872 15.4937C3.95462 15.6578 3.73206 15.75 3.5 15.75C3.26794 15.75 3.04538 15.6578 2.88128 15.4937C2.71719 15.3296 2.625 15.1071 2.625 14.875V13.125C2.625 12.8929 2.71719 12.6704 2.88128 12.5063C3.04538 12.3422 3.26794 12.25 3.5 12.25H13.125V10.5C12.4288 10.5 11.7611 10.2234 11.2688 9.73116C10.7766 9.23887 10.5 8.57119 10.5 7.875V6.125ZM14.875 8.75C15.1071 8.75 15.3296 8.65781 15.4937 8.49372C15.6578 8.32962 15.75 8.10706 15.75 7.875V6.125C15.75 5.89294 15.6578 5.67038 15.4937 5.50628C15.3296 5.34219 15.1071 5.25 14.875 5.25H13.125C12.8929 5.25 12.6704 5.34219 12.5063 5.50628C12.3422 5.67038 12.25 5.89294 12.25 6.125V7.875C12.25 8.10706 12.3422 8.32962 12.5063 8.49372C12.6704 8.65781 12.8929 8.75 13.125 8.75H14.875ZM0 20.125C0 19.4288 0.276562 18.7611 0.768845 18.2688C1.26113 17.7766 1.92881 17.5 2.625 17.5H4.375C5.07119 17.5 5.73887 17.7766 6.23116 18.2688C6.72344 18.7611 7 19.4288 7 20.125V21.875C7 22.5712 6.72344 23.2389 6.23116 23.7312C5.73887 24.2234 5.07119 24.5 4.375 24.5H2.625C1.92881 24.5 1.26113 24.2234 0.768845 23.7312C0.276562 23.2389 0 22.5712 0 21.875L0 20.125ZM2.625 19.25C2.39294 19.25 2.17038 19.3422 2.00628 19.5063C1.84219 19.6704 1.75 19.8929 1.75 20.125V21.875C1.75 22.1071 1.84219 22.3296 2.00628 22.4937C2.17038 22.6578 2.39294 22.75 2.625 22.75H4.375C4.60706 22.75 4.82962 22.6578 4.99372 22.4937C5.15781 22.3296 5.25 22.1071 5.25 21.875V20.125C5.25 19.8929 5.15781 19.6704 4.99372 19.5063C4.82962 19.3422 4.60706 19.25 4.375 19.25H2.625ZM10.5 20.125C10.5 19.4288 10.7766 18.7611 11.2688 18.2688C11.7611 17.7766 12.4288 17.5 13.125 17.5H14.875C15.5712 17.5 16.2389 17.7766 16.7312 18.2688C17.2234 18.7611 17.5 19.4288 17.5 20.125V21.875C17.5 22.5712 17.2234 23.2389 16.7312 23.7312C16.2389 24.2234 15.5712 24.5 14.875 24.5H13.125C12.4288 24.5 11.7611 24.2234 11.2688 23.7312C10.7766 23.2389 10.5 22.5712 10.5 21.875V20.125ZM13.125 19.25C12.8929 19.25 12.6704 19.3422 12.5063 19.5063C12.3422 19.6704 12.25 19.8929 12.25 20.125V21.875C12.25 22.1071 12.3422 22.3296 12.5063 22.4937C12.6704 22.6578 12.8929 22.75 13.125 22.75H14.875C15.1071 22.75 15.3296 22.6578 15.4937 22.4937C15.6578 22.3296 15.75 22.1071 15.75 21.875V20.125C15.75 19.8929 15.6578 19.6704 15.4937 19.5063C15.3296 19.3422 15.1071 19.25 14.875 19.25H13.125ZM21 20.125C21 19.4288 21.2766 18.7611 21.7688 18.2688C22.2611 17.7766 22.9288 17.5 23.625 17.5H25.375C26.0712 17.5 26.7389 17.7766 27.2312 18.2688C27.7234 18.7611 28 19.4288 28 20.125V21.875C28 22.5712 27.7234 23.2389 27.2312 23.7312C26.7389 24.2234 26.0712 24.5 25.375 24.5H23.625C22.9288 24.5 22.2611 24.2234 21.7688 23.7312C21.2766 23.2389 21 22.5712 21 21.875V20.125ZM23.625 19.25C23.3929 19.25 23.1704 19.3422 23.0063 19.5063C22.8422 19.6704 22.75 19.8929 22.75 20.125V21.875C22.75 22.1071 22.8422 22.3296 23.0063 22.4937C23.1704 22.6578 23.3929 22.75 23.625 22.75H25.375C25.6071 22.75 25.8296 22.6578 25.9937 22.4937C26.1578 22.3296 26.25 22.1071 26.25 21.875V20.125C26.25 19.8929 26.1578 19.6704 25.9937 19.5063C25.8296 19.3422 25.6071 19.25 25.375 19.25H23.625Z"/>
</mask>
<path fill-rule="evenodd" clip-rule="evenodd" d="M10.5 6.125C10.5 5.42881 10.7766 4.76113 11.2688 4.26884C11.7611 3.77656 12.4288 3.5 13.125 3.5H14.875C15.5712 3.5 16.2389 3.77656 16.7312 4.26884C17.2234 4.76113 17.5 5.42881 17.5 6.125V7.875C17.5 8.57119 17.2234 9.23887 16.7312 9.73116C16.2389 10.2234 15.5712 10.5 14.875 10.5V12.25H24.5C24.7321 12.25 24.9546 12.3422 25.1187 12.5063C25.2828 12.6704 25.375 12.8929 25.375 13.125V14.875C25.375 15.1071 25.2828 15.3296 25.1187 15.4937C24.9546 15.6578 24.7321 15.75 24.5 15.75C24.2679 15.75 24.0454 15.6578 23.8813 15.4937C23.7172 15.3296 23.625 15.1071 23.625 14.875V14H14.875V14.875C14.875 15.1071 14.7828 15.3296 14.6187 15.4937C14.4546 15.6578 14.2321 15.75 14 15.75C13.7679 15.75 13.5454 15.6578 13.3813 15.4937C13.2172 15.3296 13.125 15.1071 13.125 14.875V14H4.375V14.875C4.375 15.1071 4.28281 15.3296 4.11872 15.4937C3.95462 15.6578 3.73206 15.75 3.5 15.75C3.26794 15.75 3.04538 15.6578 2.88128 15.4937C2.71719 15.3296 2.625 15.1071 2.625 14.875V13.125C2.625 12.8929 2.71719 12.6704 2.88128 12.5063C3.04538 12.3422 3.26794 12.25 3.5 12.25H13.125V10.5C12.4288 10.5 11.7611 10.2234 11.2688 9.73116C10.7766 9.23887 10.5 8.57119 10.5 7.875V6.125ZM14.875 8.75C15.1071 8.75 15.3296 8.65781 15.4937 8.49372C15.6578 8.32962 15.75 8.10706 15.75 7.875V6.125C15.75 5.89294 15.6578 5.67038 15.4937 5.50628C15.3296 5.34219 15.1071 5.25 14.875 5.25H13.125C12.8929 5.25 12.6704 5.34219 12.5063 5.50628C12.3422 5.67038 12.25 5.89294 12.25 6.125V7.875C12.25 8.10706 12.3422 8.32962 12.5063 8.49372C12.6704 8.65781 12.8929 8.75 13.125 8.75H14.875ZM0 20.125C0 19.4288 0.276562 18.7611 0.768845 18.2688C1.26113 17.7766 1.92881 17.5 2.625 17.5H4.375C5.07119 17.5 5.73887 17.7766 6.23116 18.2688C6.72344 18.7611 7 19.4288 7 20.125V21.875C7 22.5712 6.72344 23.2389 6.23116 23.7312C5.73887 24.2234 5.07119 24.5 4.375 24.5H2.625C1.92881 24.5 1.26113 24.2234 0.768845 23.7312C0.276562 23.2389 0 22.5712 0 21.875L0 20.125ZM2.625 19.25C2.39294 19.25 2.17038 19.3422 2.00628 19.5063C1.84219 19.6704 1.75 19.8929 1.75 20.125V21.875C1.75 22.1071 1.84219 22.3296 2.00628 22.4937C2.17038 22.6578 2.39294 22.75 2.625 22.75H4.375C4.60706 22.75 4.82962 22.6578 4.99372 22.4937C5.15781 22.3296 5.25 22.1071 5.25 21.875V20.125C5.25 19.8929 5.15781 19.6704 4.99372 19.5063C4.82962 19.3422 4.60706 19.25 4.375 19.25H2.625ZM10.5 20.125C10.5 19.4288 10.7766 18.7611 11.2688 18.2688C11.7611 17.7766 12.4288 17.5 13.125 17.5H14.875C15.5712 17.5 16.2389 17.7766 16.7312 18.2688C17.2234 18.7611 17.5 19.4288 17.5 20.125V21.875C17.5 22.5712 17.2234 23.2389 16.7312 23.7312C16.2389 24.2234 15.5712 24.5 14.875 24.5H13.125C12.4288 24.5 11.7611 24.2234 11.2688 23.7312C10.7766 23.2389 10.5 22.5712 10.5 21.875V20.125ZM13.125 19.25C12.8929 19.25 12.6704 19.3422 12.5063 19.5063C12.3422 19.6704 12.25 19.8929 12.25 20.125V21.875C12.25 22.1071 12.3422 22.3296 12.5063 22.4937C12.6704 22.6578 12.8929 22.75 13.125 22.75H14.875C15.1071 22.75 15.3296 22.6578 15.4937 22.4937C15.6578 22.3296 15.75 22.1071 15.75 21.875V20.125C15.75 19.8929 15.6578 19.6704 15.4937 19.5063C15.3296 19.3422 15.1071 19.25 14.875 19.25H13.125ZM21 20.125C21 19.4288 21.2766 18.7611 21.7688 18.2688C22.2611 17.7766 22.9288 17.5 23.625 17.5H25.375C26.0712 17.5 26.7389 17.7766 27.2312 18.2688C27.7234 18.7611 28 19.4288 28 20.125V21.875C28 22.5712 27.7234 23.2389 27.2312 23.7312C26.7389 24.2234 26.0712 24.5 25.375 24.5H23.625C22.9288 24.5 22.2611 24.2234 21.7688 23.7312C21.2766 23.2389 21 22.5712 21 21.875V20.125ZM23.625 19.25C23.3929 19.25 23.1704 19.3422 23.0063 19.5063C22.8422 19.6704 22.75 19.8929 22.75 20.125V21.875C22.75 22.1071 22.8422 22.3296 23.0063 22.4937C23.1704 22.6578 23.3929 22.75 23.625 22.75H25.375C25.6071 22.75 25.8296 22.6578 25.9937 22.4937C26.1578 22.3296 26.25 22.1071 26.25 21.875V20.125C26.25 19.8929 26.1578 19.6704 25.9937 19.5063C25.8296 19.3422 25.6071 19.25 25.375 19.25H23.625Z" fill="#030303" stroke="#FBFBFB" stroke-width="2" mask="url(#path-1-inside-1_637_2419)"/>
</g>
<defs>
<clipPath id="clip0_637_2419">
<rect width="28" height="28" fill="white"/>
</clipPath>
</defs>
</svg>
