<svg width="28" height="28" viewBox="0 0 28 28" fill="none" xmlns="http://www.w3.org/2000/svg">
<path d="M22.75 16.625V13.5625C22.75 11.3879 20.9871 9.625 18.8125 9.625H17.0625C16.3376 9.625 15.75 9.03737 15.75 8.3125V6.5625C15.75 4.38788 13.9871 2.625 11.8125 2.625H9.625M9.625 17.5H18.375M9.625 21H14M12.25 2.625H6.5625C5.83763 2.625 5.25 3.21263 5.25 3.9375V24.0625C5.25 24.7874 5.83763 25.375 6.5625 25.375H21.4375C22.1624 25.375 22.75 24.7874 22.75 24.0625V13.125C22.75 7.32601 18.049 2.625 12.25 2.625Z" stroke="#FBFBFB" stroke-width="1.5" stroke-linecap="round" stroke-linejoin="round"/>
</svg>
