<svg width="28" height="28" viewBox="0 0 28 28" fill="none" xmlns="http://www.w3.org/2000/svg">
<path d="M22.0977 5.73306V9.41697M17.987 8.95854V5.73306M15.7957 5.73306H24.2683C24.4718 5.73306 24.6368 5.56805 24.6368 5.3645V1.52294C24.6368 1.31939 24.4718 1.15438 24.2683 1.15438L15.7957 1.1543C15.5921 1.1543 15.4271 1.31931 15.4271 1.52286V5.3645C15.4271 5.56805 15.5921 5.73306 15.7957 5.73306Z" stroke="#FBFBFB" stroke-width="1.5" stroke-miterlimit="10" stroke-linecap="round" stroke-linejoin="round"/>
<path d="M24.0993 20.6859V10.8254C24.0993 10.0474 23.4686 9.41675 22.6906 9.41675H11.891H7.19553H5.31735C4.53934 9.41675 3.90867 10.0474 3.90867 10.8254V20.686M24.105 25.3814H3.90292C3.12814 25.3814 2.5 24.7533 2.5 23.9785V22.0889C2.5 21.3141 3.12814 20.686 3.90292 20.686H24.105C24.8798 20.686 25.5079 21.3141 25.5079 22.0889V23.9785C25.5079 24.7533 24.8798 25.3814 24.105 25.3814Z" stroke="#FBFBFB" stroke-width="1.5" stroke-miterlimit="10" stroke-linecap="round" stroke-linejoin="round"/>
<path d="M6.56851 14.2698C7.01699 14.2698 7.38056 13.9062 7.38056 13.4577C7.38056 13.0093 7.01699 12.6457 6.56851 12.6457C6.12003 12.6457 5.75647 13.0093 5.75647 13.4577C5.75647 13.9062 6.12003 14.2698 6.56851 14.2698Z" fill="#FBFBFB" stroke="#FBFBFB" stroke-width="0.1" stroke-linecap="round" stroke-linejoin="round"/>
<path d="M9.8328 14.2697C10.2813 14.2697 10.6448 13.9062 10.6448 13.4577C10.6448 13.0092 10.2813 12.6456 9.8328 12.6456C9.38432 12.6456 9.02075 13.0092 9.02075 13.4577C9.02075 13.9062 9.38432 14.2697 9.8328 14.2697Z" fill="#FBFBFB" stroke="#FBFBFB" stroke-width="0.1" stroke-linecap="round" stroke-linejoin="round"/>
<path d="M13.0979 14.2697C13.5464 14.2697 13.91 13.9062 13.91 13.4577C13.91 13.0092 13.5464 12.6456 13.0979 12.6456C12.6495 12.6456 12.2859 13.0092 12.2859 13.4577C12.2859 13.9062 12.6495 14.2697 13.0979 14.2697Z" fill="#FBFBFB" stroke="#FBFBFB" stroke-width="0.1" stroke-linecap="round" stroke-linejoin="round"/>
<path d="M13.0979 18.1061C13.5464 18.1061 13.91 17.7425 13.91 17.294C13.91 16.8456 13.5464 16.482 13.0979 16.482C12.6495 16.482 12.2859 16.8456 12.2859 17.294C12.2859 17.7425 12.6495 18.1061 13.0979 18.1061Z" fill="#FBFBFB" stroke="#FBFBFB" stroke-width="0.1" stroke-linecap="round" stroke-linejoin="round"/>
<path d="M9.8328 18.1061C10.2813 18.1061 10.6448 17.7425 10.6448 17.294C10.6448 16.8456 10.2813 16.482 9.8328 16.482C9.38432 16.482 9.02075 16.8456 9.02075 17.294C9.02075 17.7425 9.38432 18.1061 9.8328 18.1061Z" fill="#FBFBFB" stroke="#FBFBFB" stroke-width="0.1" stroke-linecap="round" stroke-linejoin="round"/>
<path d="M6.56864 18.1061C7.01712 18.1061 7.38068 17.7425 7.38068 17.294C7.38068 16.8456 7.01712 16.482 6.56864 16.482C6.12016 16.482 5.75659 16.8456 5.75659 17.294C5.75659 17.7425 6.12016 18.1061 6.56864 18.1061Z" fill="#FBFBFB" stroke="#FBFBFB" stroke-width="0.1" stroke-linecap="round" stroke-linejoin="round"/>
<path d="M5.75647 9.41641V4.60608L7.31736 5.42653L8.87838 4.60608L10.4396 5.42653L12.0008 4.60608V9.41641" stroke="#FBFBFB" stroke-width="1.3" stroke-miterlimit="10" stroke-linecap="round" stroke-linejoin="round"/>
</svg>
