<svg width="28" height="28" viewBox="0 0 28 28" fill="none" xmlns="http://www.w3.org/2000/svg">
<path d="M2.625 21.875C9.00339 21.875 15.1825 22.7281 21.0545 24.3264C21.9027 24.5573 22.75 23.9267 22.75 23.0476V21.875M4.375 5.25V6.125C4.375 6.60825 3.98325 7 3.5 7H2.625M2.625 7V6.5625C2.625 5.83763 3.21263 5.25 3.9375 5.25H23.625M2.625 7V17.5M23.625 5.25V6.125C23.625 6.60825 24.0168 7 24.5 7H25.375M23.625 5.25H24.0625C24.7874 5.25 25.375 5.83763 25.375 6.5625V17.9375C25.375 18.6624 24.7874 19.25 24.0625 19.25H23.625M25.375 17.5H24.5C24.0168 17.5 23.625 17.8918 23.625 18.375V19.25M23.625 19.25H4.375M4.375 19.25H3.9375C3.21263 19.25 2.625 18.6624 2.625 17.9375V17.5M4.375 19.25V18.375C4.375 17.8918 3.98325 17.5 3.5 17.5H2.625M17.5 12.25C17.5 14.183 15.933 15.75 14 15.75C12.067 15.75 10.5 14.183 10.5 12.25C10.5 10.317 12.067 8.75 14 8.75C15.933 8.75 17.5 10.317 17.5 12.25ZM21 12.25H21.0087V12.2588H21V12.25ZM7 12.25H7.00875V12.2588H7V12.25Z" stroke="#F0F0F0" stroke-width="1.5" stroke-linecap="round" stroke-linejoin="round"/>
</svg>
