<svg width="28" height="28" viewBox="0 0 28 28" fill="none" xmlns="http://www.w3.org/2000/svg">
<path d="M7.875 18H9.625C10.1886 18 10.7294 18.2236 11.1279 18.6221C11.5264 19.0206 11.75 19.5614 11.75 20.125V21.875C11.75 22.4386 11.5264 22.9794 11.1279 23.3779C10.7294 23.7764 10.1886 24 9.625 24H7.875C7.31141 24 6.77059 23.7764 6.37207 23.3779C5.97356 22.9794 5.75 22.4386 5.75 21.875V20.125C5.75 19.5614 5.97356 19.0206 6.37207 18.6221C6.77059 18.2236 7.31142 18 7.875 18ZM18.375 18H20.125C20.6886 18 21.2294 18.2236 21.6279 18.6221C22.0264 19.0206 22.25 19.5614 22.25 20.125V21.875C22.25 22.4386 22.0264 22.9794 21.6279 23.3779C21.2294 23.7764 20.6886 24 20.125 24H18.375C17.8114 24 17.2706 23.7764 16.8721 23.3779C16.4736 22.9794 16.25 22.4386 16.25 21.875V20.125C16.25 19.5614 16.4736 19.0206 16.8721 18.6221C17.2706 18.2236 17.8114 18 18.375 18ZM7.875 18.75C7.51033 18.75 7.16021 18.8945 6.90234 19.1523C6.64448 19.4102 6.5 19.7603 6.5 20.125V21.875C6.5 22.2397 6.64448 22.5898 6.90234 22.8477C7.16021 23.1055 7.51033 23.25 7.875 23.25H9.625C9.98967 23.25 10.3398 23.1055 10.5977 22.8477C10.8555 22.5898 11 22.2397 11 21.875V20.125C11 19.7603 10.8555 19.4102 10.5977 19.1523C10.3398 18.8945 9.98967 18.75 9.625 18.75H7.875ZM18.375 18.75C18.0103 18.75 17.6602 18.8945 17.4023 19.1523C17.1445 19.4102 17 19.7603 17 20.125V21.875C17 22.2397 17.1445 22.5898 17.4023 22.8477C17.6602 23.1055 18.0103 23.25 18.375 23.25H20.125C20.4897 23.25 20.8398 23.1055 21.0977 22.8477C21.3555 22.5898 21.5 22.2397 21.5 21.875V20.125C21.5 19.7603 21.3555 19.4102 21.0977 19.1523C20.8398 18.8945 20.4897 18.75 20.125 18.75H18.375ZM13.125 4.75C12.7603 4.75 12.4102 4.89448 12.1523 5.15234C11.8945 5.41021 11.75 5.76033 11.75 6.125V7.875C11.75 8.23967 11.8945 8.58979 12.1523 8.84766C12.4102 9.10552 12.7603 9.25 13.125 9.25H14.875C15.2397 9.25 15.5898 9.10552 15.8477 8.84766C16.1055 8.58979 16.25 8.23967 16.25 7.875V6.125C16.25 5.76033 16.1055 5.41021 15.8477 5.15234C15.5898 4.89448 15.2397 4.75 14.875 4.75H13.125ZM13.625 10H13.125C12.5614 10 12.0206 9.77644 11.6221 9.37793C11.2236 8.97942 11 8.43859 11 7.875V6.125C11 5.56141 11.2236 5.02058 11.6221 4.62207C12.0206 4.22356 12.5614 4 13.125 4H14.875C15.4386 4 15.9794 4.22356 16.3779 4.62207C16.7764 5.02059 17 5.56141 17 6.125V7.875C17 8.43859 16.7764 8.97942 16.3779 9.37793C15.9794 9.77644 15.4386 10 14.875 10H14.375V12.75H19.25C19.3495 12.75 19.4453 12.7891 19.5156 12.8594C19.586 12.9297 19.625 13.0255 19.625 13.125V14.875C19.625 14.9745 19.586 15.0703 19.5156 15.1406C19.4453 15.2109 19.3495 15.25 19.25 15.25C19.1505 15.25 19.0547 15.2109 18.9844 15.1406C18.9141 15.0703 18.875 14.9745 18.875 14.875V13.5H9.125V14.875C9.125 14.9745 9.08595 15.0703 9.01562 15.1406C8.9453 15.211 8.84946 15.25 8.75 15.25C8.65054 15.25 8.5547 15.211 8.48438 15.1406C8.41405 15.0703 8.375 14.9745 8.375 14.875V13.125C8.375 13.0255 8.41405 12.9297 8.48438 12.8594C8.5547 12.789 8.65054 12.75 8.75 12.75H13.625V10Z" fill="#030303" stroke="#FBFBFB"/>
</svg>
