<svg width="28" height="28" viewBox="0 0 28 28" fill="none" xmlns="http://www.w3.org/2000/svg">
<path d="M9.5 17.417C12.9362 17.417 14.9245 18.4441 16.0527 19.5723C17.1954 20.7149 17.4999 22.0029 17.5 22.583C17.5 22.8497 17.4345 23.0168 17.3623 23.125C17.2881 23.2362 17.186 23.3171 17.0684 23.376C16.9487 23.4358 16.8227 23.4677 16.7227 23.4844C16.6738 23.4925 16.6338 23.4962 16.6084 23.498L16.583 23.5H2.41699L2.3916 23.498C2.36616 23.4962 2.32619 23.4925 2.27734 23.4844C2.17731 23.4677 2.05128 23.4358 1.93164 23.376C1.81398 23.3171 1.71189 23.2362 1.6377 23.125C1.56555 23.0168 1.5 22.8497 1.5 22.583C1.50011 22.0029 1.80461 20.7149 2.94727 19.5723C4.07548 18.4441 6.06378 17.417 9.5 17.417ZM9.5 17.833C6.15007 17.833 4.27704 18.8323 3.24219 19.8672C2.18502 20.9244 1.92097 22.0993 1.91699 22.5732L1.91211 23.0781H17.085L17.083 22.5752C17.0809 22.0988 16.8142 20.9236 15.7578 19.8672C14.7229 18.8323 12.8485 17.833 9.5 17.833ZM9.5 7.5C10.4946 7.5 11.4481 7.89537 12.1514 8.59863C12.8546 9.30189 13.25 10.2554 13.25 11.25C13.25 12.2446 12.8546 13.1981 12.1514 13.9014C11.4481 14.6046 10.4946 15 9.5 15C8.50544 15 7.55189 14.6046 6.84863 13.9014C6.14537 13.1981 5.75 12.2446 5.75 11.25C5.75 10.2554 6.14537 9.30189 6.84863 8.59863C7.55189 7.89537 8.50544 7.5 9.5 7.5ZM9.5 7.91699C8.61594 7.91699 7.7677 8.26746 7.14258 8.89258C6.51746 9.5177 6.16699 10.3659 6.16699 11.25C6.16699 12.1341 6.51746 12.9823 7.14258 13.6074C7.7677 14.2325 8.61594 14.583 9.5 14.583C10.3841 14.583 11.2323 14.2325 11.8574 13.6074C12.4825 12.9823 12.833 12.1341 12.833 11.25C12.833 10.3659 12.4825 9.5177 11.8574 8.89258C11.2323 8.26746 10.3841 7.91699 9.5 7.91699Z" fill="#030303" stroke="#FBFBFB"/>
<mask id="path-2-outside-1_637_5708" maskUnits="userSpaceOnUse" x="14.0005" y="1" width="13" height="13" fill="black">
<rect fill="white" x="14.0005" y="1" width="13" height="13"/>
<path d="M20.5001 5.26803C20.2071 5.26803 19.9169 5.32575 19.6461 5.4379C19.3754 5.55005 19.1294 5.71443 18.9221 5.92166C18.7149 6.12888 18.5505 6.3749 18.4384 6.64565C18.3262 6.9164 18.2685 7.20659 18.2685 7.49966C18.2685 7.79272 18.3262 8.08291 18.4384 8.35366C18.5505 8.62442 18.7149 8.87043 18.9221 9.07765C19.1294 9.28488 19.3754 9.44926 19.6461 9.56141C19.9169 9.67356 20.2071 9.73128 20.5001 9.73128C21.092 9.73128 21.6596 9.49616 22.0781 9.07765C22.4967 8.65914 22.7318 8.09152 22.7318 7.49966C22.7318 6.90779 22.4967 6.34017 22.0781 5.92166C21.6596 5.50315 21.092 5.26803 20.5001 5.26803ZM18.956 7.49966C18.956 7.09013 19.1187 6.69737 19.4083 6.40779C19.6979 6.11822 20.0906 5.95553 20.5001 5.95553C20.9097 5.95553 21.3024 6.11822 21.592 6.40779C21.8816 6.69737 22.0443 7.09013 22.0443 7.49966C22.0443 7.90918 21.8816 8.30194 21.592 8.59152C21.3024 8.8811 20.9097 9.04378 20.5001 9.04378C20.0906 9.04378 19.6979 8.8811 19.4083 8.59152C19.1187 8.30194 18.956 7.90918 18.956 7.49966Z"/>
<path d="M21.7349 2.92297C21.3726 1.69234 19.6277 1.69234 19.2654 2.92297L19.2008 3.14228C19.1755 3.22819 19.1313 3.30734 19.0714 3.37394C19.0115 3.44054 18.9375 3.4929 18.8548 3.52718C18.772 3.56146 18.6827 3.57679 18.5933 3.57205C18.5038 3.56731 18.4166 3.54262 18.338 3.49978L18.1372 3.38978C17.0097 2.77653 15.777 4.00991 16.391 5.13672L16.5003 5.33747C16.5431 5.41611 16.5678 5.50335 16.5725 5.59277C16.5773 5.6822 16.5619 5.77156 16.5277 5.85429C16.4934 5.93702 16.441 6.01104 16.3744 6.07091C16.3078 6.13077 16.2287 6.17498 16.1428 6.20028L15.9235 6.26491C14.6928 6.62722 14.6928 8.37209 15.9235 8.73441L16.1428 8.79903C16.2287 8.82433 16.3078 8.86854 16.3744 8.92841C16.441 8.98828 16.4934 9.06229 16.5277 9.14502C16.5619 9.22775 16.5773 9.31711 16.5725 9.40654C16.5678 9.49597 16.5431 9.5832 16.5003 9.66184L16.3903 9.86259C15.777 10.9901 17.0097 12.2235 18.1372 11.6088L18.338 11.4995C18.4166 11.4567 18.5038 11.432 18.5933 11.4273C18.6827 11.4225 18.772 11.4379 18.8548 11.4721C18.9375 11.5064 19.0115 11.5588 19.0714 11.6254C19.1313 11.692 19.1755 11.7711 19.2008 11.857L19.2654 12.0763C19.6277 13.307 21.3726 13.307 21.7349 12.0763L21.7995 11.857C21.8248 11.7711 21.869 11.692 21.9289 11.6254C21.9888 11.5588 22.0628 11.5064 22.1455 11.4721C22.2282 11.4379 22.3176 11.4225 22.407 11.4273C22.4965 11.432 22.5837 11.4567 22.6623 11.4995L22.8631 11.6095C23.9906 12.2235 25.224 10.9894 24.6093 9.86259L24.5 9.66184C24.4572 9.5832 24.4325 9.49597 24.4278 9.40654C24.423 9.31711 24.4383 9.22775 24.4726 9.14502C24.5069 9.06229 24.5593 8.98828 24.6259 8.92841C24.6925 8.86854 24.7716 8.82433 24.8575 8.79903L25.0768 8.73441C26.3075 8.37209 26.3075 6.62722 25.0768 6.26491L24.8575 6.20028C24.7716 6.17498 24.6925 6.13077 24.6259 6.07091C24.5593 6.01104 24.5069 5.93702 24.4726 5.85429C24.4383 5.77156 24.423 5.6822 24.4278 5.59277C24.4325 5.50335 24.4572 5.41611 24.5 5.33747L24.61 5.13672C25.224 4.00922 23.9899 2.77653 22.8631 3.39047L22.6623 3.49978C22.5837 3.54262 22.4965 3.56731 22.407 3.57205C22.3176 3.57679 22.2282 3.56146 22.1455 3.52718C22.0628 3.4929 21.9888 3.44054 21.9289 3.37394C21.869 3.30734 21.8248 3.22819 21.7995 3.14228L21.7349 2.92297ZM19.9247 3.11753C20.0938 2.54347 20.9065 2.54347 21.0756 3.11753L21.1402 3.33684C21.1945 3.52115 21.2894 3.69097 21.4179 3.83384C21.5464 3.97671 21.7052 4.08901 21.8828 4.16252C22.0603 4.23602 22.252 4.26887 22.4439 4.25864C22.6358 4.24841 22.8229 4.19537 22.9916 4.10341L23.1917 3.99341C23.717 3.70809 24.2917 4.28216 24.0057 4.80809L23.8964 5.00884C23.8046 5.17757 23.7517 5.36471 23.7415 5.55654C23.7314 5.74838 23.7644 5.94004 23.8379 6.1175C23.9115 6.29495 24.0238 6.4537 24.1667 6.5821C24.3096 6.71051 24.4794 6.80532 24.6636 6.85959L24.8823 6.92422C25.4563 7.09334 25.4563 7.90597 24.8823 8.07509L24.663 8.13972C24.4786 8.19405 24.3088 8.28893 24.166 8.41742C24.0231 8.54591 23.9108 8.70474 23.8373 8.88227C23.7638 9.0598 23.7309 9.25154 23.7412 9.44341C23.7514 9.63529 23.8044 9.82244 23.8964 9.99116L24.0064 10.1912C24.2917 10.7165 23.7176 11.2912 23.1917 11.0052L22.9916 10.8959C22.8229 10.804 22.6357 10.7509 22.4438 10.7408C22.2519 10.7306 22.0601 10.7635 21.8826 10.837C21.705 10.9106 21.5462 11.023 21.4177 11.166C21.2893 11.3089 21.1945 11.4788 21.1402 11.6632L21.0756 11.8818C20.9065 12.4558 20.0938 12.4558 19.9247 11.8818L19.8601 11.6625C19.8057 11.4783 19.7109 11.3085 19.5824 11.1657C19.454 11.0229 19.2952 10.9107 19.1178 10.8372C18.9403 10.7637 18.7487 10.7308 18.5569 10.741C18.3651 10.7511 18.178 10.8041 18.0093 10.8959L17.8086 11.0059C17.2833 11.2912 16.7086 10.7172 16.9946 10.1912L17.1039 9.99116C17.196 9.82242 17.2491 9.6352 17.2594 9.44324C17.2697 9.25128 17.2369 9.05946 17.1634 8.88183C17.0899 8.70421 16.9775 8.5453 16.8346 8.41677C16.6916 8.28823 16.5217 8.19333 16.3373 8.13903L16.118 8.07441C15.544 7.90528 15.544 7.09266 16.118 6.92353L16.3373 6.85891C16.5214 6.80453 16.6911 6.70968 16.8338 6.58129C16.9765 6.45289 17.0887 6.29421 17.1622 6.11686C17.2357 5.9395 17.2686 5.74796 17.2585 5.55624C17.2484 5.36453 17.1956 5.1775 17.1039 5.00884L16.9939 4.80809C16.7086 4.28284 17.2826 3.70809 17.8086 3.99409L18.0093 4.10341C18.178 4.19524 18.3651 4.24818 18.5569 4.25834C18.7487 4.2685 18.9403 4.23563 19.1178 4.16213C19.2952 4.08863 19.454 3.97638 19.5824 3.83358C19.7109 3.69078 19.8057 3.52106 19.8601 3.33684L19.9247 3.11753Z"/>
</mask>
<path d="M20.5001 5.26803C20.2071 5.26803 19.9169 5.32575 19.6461 5.4379C19.3754 5.55005 19.1294 5.71443 18.9221 5.92166C18.7149 6.12888 18.5505 6.3749 18.4384 6.64565C18.3262 6.9164 18.2685 7.20659 18.2685 7.49966C18.2685 7.79272 18.3262 8.08291 18.4384 8.35366C18.5505 8.62442 18.7149 8.87043 18.9221 9.07765C19.1294 9.28488 19.3754 9.44926 19.6461 9.56141C19.9169 9.67356 20.2071 9.73128 20.5001 9.73128C21.092 9.73128 21.6596 9.49616 22.0781 9.07765C22.4967 8.65914 22.7318 8.09152 22.7318 7.49966C22.7318 6.90779 22.4967 6.34017 22.0781 5.92166C21.6596 5.50315 21.092 5.26803 20.5001 5.26803ZM18.956 7.49966C18.956 7.09013 19.1187 6.69737 19.4083 6.40779C19.6979 6.11822 20.0906 5.95553 20.5001 5.95553C20.9097 5.95553 21.3024 6.11822 21.592 6.40779C21.8816 6.69737 22.0443 7.09013 22.0443 7.49966C22.0443 7.90918 21.8816 8.30194 21.592 8.59152C21.3024 8.8811 20.9097 9.04378 20.5001 9.04378C20.0906 9.04378 19.6979 8.8811 19.4083 8.59152C19.1187 8.30194 18.956 7.90918 18.956 7.49966Z" fill="#FBFBFB"/>
<path d="M21.7349 2.92297C21.3726 1.69234 19.6277 1.69234 19.2654 2.92297L19.2008 3.14228C19.1755 3.22819 19.1313 3.30734 19.0714 3.37394C19.0115 3.44054 18.9375 3.4929 18.8548 3.52718C18.772 3.56146 18.6827 3.57679 18.5933 3.57205C18.5038 3.56731 18.4166 3.54262 18.338 3.49978L18.1372 3.38978C17.0097 2.77653 15.777 4.00991 16.391 5.13672L16.5003 5.33747C16.5431 5.41611 16.5678 5.50335 16.5725 5.59277C16.5773 5.6822 16.5619 5.77156 16.5277 5.85429C16.4934 5.93702 16.441 6.01104 16.3744 6.07091C16.3078 6.13077 16.2287 6.17498 16.1428 6.20028L15.9235 6.26491C14.6928 6.62722 14.6928 8.37209 15.9235 8.73441L16.1428 8.79903C16.2287 8.82433 16.3078 8.86854 16.3744 8.92841C16.441 8.98828 16.4934 9.06229 16.5277 9.14502C16.5619 9.22775 16.5773 9.31711 16.5725 9.40654C16.5678 9.49597 16.5431 9.5832 16.5003 9.66184L16.3903 9.86259C15.777 10.9901 17.0097 12.2235 18.1372 11.6088L18.338 11.4995C18.4166 11.4567 18.5038 11.432 18.5933 11.4273C18.6827 11.4225 18.772 11.4379 18.8548 11.4721C18.9375 11.5064 19.0115 11.5588 19.0714 11.6254C19.1313 11.692 19.1755 11.7711 19.2008 11.857L19.2654 12.0763C19.6277 13.307 21.3726 13.307 21.7349 12.0763L21.7995 11.857C21.8248 11.7711 21.869 11.692 21.9289 11.6254C21.9888 11.5588 22.0628 11.5064 22.1455 11.4721C22.2282 11.4379 22.3176 11.4225 22.407 11.4273C22.4965 11.432 22.5837 11.4567 22.6623 11.4995L22.8631 11.6095C23.9906 12.2235 25.224 10.9894 24.6093 9.86259L24.5 9.66184C24.4572 9.5832 24.4325 9.49597 24.4278 9.40654C24.423 9.31711 24.4383 9.22775 24.4726 9.14502C24.5069 9.06229 24.5593 8.98828 24.6259 8.92841C24.6925 8.86854 24.7716 8.82433 24.8575 8.79903L25.0768 8.73441C26.3075 8.37209 26.3075 6.62722 25.0768 6.26491L24.8575 6.20028C24.7716 6.17498 24.6925 6.13077 24.6259 6.07091C24.5593 6.01104 24.5069 5.93702 24.4726 5.85429C24.4383 5.77156 24.423 5.6822 24.4278 5.59277C24.4325 5.50335 24.4572 5.41611 24.5 5.33747L24.61 5.13672C25.224 4.00922 23.9899 2.77653 22.8631 3.39047L22.6623 3.49978C22.5837 3.54262 22.4965 3.56731 22.407 3.57205C22.3176 3.57679 22.2282 3.56146 22.1455 3.52718C22.0628 3.4929 21.9888 3.44054 21.9289 3.37394C21.869 3.30734 21.8248 3.22819 21.7995 3.14228L21.7349 2.92297ZM19.9247 3.11753C20.0938 2.54347 20.9065 2.54347 21.0756 3.11753L21.1402 3.33684C21.1945 3.52115 21.2894 3.69097 21.4179 3.83384C21.5464 3.97671 21.7052 4.08901 21.8828 4.16252C22.0603 4.23602 22.252 4.26887 22.4439 4.25864C22.6358 4.24841 22.8229 4.19537 22.9916 4.10341L23.1917 3.99341C23.717 3.70809 24.2917 4.28216 24.0057 4.80809L23.8964 5.00884C23.8046 5.17757 23.7517 5.36471 23.7415 5.55654C23.7314 5.74838 23.7644 5.94004 23.8379 6.1175C23.9115 6.29495 24.0238 6.4537 24.1667 6.5821C24.3096 6.71051 24.4794 6.80532 24.6636 6.85959L24.8823 6.92422C25.4563 7.09334 25.4563 7.90597 24.8823 8.07509L24.663 8.13972C24.4786 8.19405 24.3088 8.28893 24.166 8.41742C24.0231 8.54591 23.9108 8.70474 23.8373 8.88227C23.7638 9.0598 23.7309 9.25154 23.7412 9.44341C23.7514 9.63529 23.8044 9.82244 23.8964 9.99116L24.0064 10.1912C24.2917 10.7165 23.7176 11.2912 23.1917 11.0052L22.9916 10.8959C22.8229 10.804 22.6357 10.7509 22.4438 10.7408C22.2519 10.7306 22.0601 10.7635 21.8826 10.837C21.705 10.9106 21.5462 11.023 21.4177 11.166C21.2893 11.3089 21.1945 11.4788 21.1402 11.6632L21.0756 11.8818C20.9065 12.4558 20.0938 12.4558 19.9247 11.8818L19.8601 11.6625C19.8057 11.4783 19.7109 11.3085 19.5824 11.1657C19.454 11.0229 19.2952 10.9107 19.1178 10.8372C18.9403 10.7637 18.7487 10.7308 18.5569 10.741C18.3651 10.7511 18.178 10.8041 18.0093 10.8959L17.8086 11.0059C17.2833 11.2912 16.7086 10.7172 16.9946 10.1912L17.1039 9.99116C17.196 9.82242 17.2491 9.6352 17.2594 9.44324C17.2697 9.25128 17.2369 9.05946 17.1634 8.88183C17.0899 8.70421 16.9775 8.5453 16.8346 8.41677C16.6916 8.28823 16.5217 8.19333 16.3373 8.13903L16.118 8.07441C15.544 7.90528 15.544 7.09266 16.118 6.92353L16.3373 6.85891C16.5214 6.80453 16.6911 6.70968 16.8338 6.58129C16.9765 6.45289 17.0887 6.29421 17.1622 6.11686C17.2357 5.9395 17.2686 5.74796 17.2585 5.55624C17.2484 5.36453 17.1956 5.1775 17.1039 5.00884L16.9939 4.80809C16.7086 4.28284 17.2826 3.70809 17.8086 3.99409L18.0093 4.10341C18.178 4.19524 18.3651 4.24818 18.5569 4.25834C18.7487 4.2685 18.9403 4.23563 19.1178 4.16213C19.2952 4.08863 19.454 3.97638 19.5824 3.83358C19.7109 3.69078 19.8057 3.52106 19.8601 3.33684L19.9247 3.11753Z" fill="#FBFBFB"/>
<path d="M20.5001 5.26803C20.2071 5.26803 19.9169 5.32575 19.6461 5.4379C19.3754 5.55005 19.1294 5.71443 18.9221 5.92166C18.7149 6.12888 18.5505 6.3749 18.4384 6.64565C18.3262 6.9164 18.2685 7.20659 18.2685 7.49966C18.2685 7.79272 18.3262 8.08291 18.4384 8.35366C18.5505 8.62442 18.7149 8.87043 18.9221 9.07765C19.1294 9.28488 19.3754 9.44926 19.6461 9.56141C19.9169 9.67356 20.2071 9.73128 20.5001 9.73128C21.092 9.73128 21.6596 9.49616 22.0781 9.07765C22.4967 8.65914 22.7318 8.09152 22.7318 7.49966C22.7318 6.90779 22.4967 6.34017 22.0781 5.92166C21.6596 5.50315 21.092 5.26803 20.5001 5.26803ZM18.956 7.49966C18.956 7.09013 19.1187 6.69737 19.4083 6.40779C19.6979 6.11822 20.0906 5.95553 20.5001 5.95553C20.9097 5.95553 21.3024 6.11822 21.592 6.40779C21.8816 6.69737 22.0443 7.09013 22.0443 7.49966C22.0443 7.90918 21.8816 8.30194 21.592 8.59152C21.3024 8.8811 20.9097 9.04378 20.5001 9.04378C20.0906 9.04378 19.6979 8.8811 19.4083 8.59152C19.1187 8.30194 18.956 7.90918 18.956 7.49966Z" stroke="#FBFBFB" stroke-width="0.4" mask="url(#path-2-outside-1_637_5708)"/>
<path d="M21.7349 2.92297C21.3726 1.69234 19.6277 1.69234 19.2654 2.92297L19.2008 3.14228C19.1755 3.22819 19.1313 3.30734 19.0714 3.37394C19.0115 3.44054 18.9375 3.4929 18.8548 3.52718C18.772 3.56146 18.6827 3.57679 18.5933 3.57205C18.5038 3.56731 18.4166 3.54262 18.338 3.49978L18.1372 3.38978C17.0097 2.77653 15.777 4.00991 16.391 5.13672L16.5003 5.33747C16.5431 5.41611 16.5678 5.50335 16.5725 5.59277C16.5773 5.6822 16.5619 5.77156 16.5277 5.85429C16.4934 5.93702 16.441 6.01104 16.3744 6.07091C16.3078 6.13077 16.2287 6.17498 16.1428 6.20028L15.9235 6.26491C14.6928 6.62722 14.6928 8.37209 15.9235 8.73441L16.1428 8.79903C16.2287 8.82433 16.3078 8.86854 16.3744 8.92841C16.441 8.98828 16.4934 9.06229 16.5277 9.14502C16.5619 9.22775 16.5773 9.31711 16.5725 9.40654C16.5678 9.49597 16.5431 9.5832 16.5003 9.66184L16.3903 9.86259C15.777 10.9901 17.0097 12.2235 18.1372 11.6088L18.338 11.4995C18.4166 11.4567 18.5038 11.432 18.5933 11.4273C18.6827 11.4225 18.772 11.4379 18.8548 11.4721C18.9375 11.5064 19.0115 11.5588 19.0714 11.6254C19.1313 11.692 19.1755 11.7711 19.2008 11.857L19.2654 12.0763C19.6277 13.307 21.3726 13.307 21.7349 12.0763L21.7995 11.857C21.8248 11.7711 21.869 11.692 21.9289 11.6254C21.9888 11.5588 22.0628 11.5064 22.1455 11.4721C22.2282 11.4379 22.3176 11.4225 22.407 11.4273C22.4965 11.432 22.5837 11.4567 22.6623 11.4995L22.8631 11.6095C23.9906 12.2235 25.224 10.9894 24.6093 9.86259L24.5 9.66184C24.4572 9.5832 24.4325 9.49597 24.4278 9.40654C24.423 9.31711 24.4383 9.22775 24.4726 9.14502C24.5069 9.06229 24.5593 8.98828 24.6259 8.92841C24.6925 8.86854 24.7716 8.82433 24.8575 8.79903L25.0768 8.73441C26.3075 8.37209 26.3075 6.62722 25.0768 6.26491L24.8575 6.20028C24.7716 6.17498 24.6925 6.13077 24.6259 6.07091C24.5593 6.01104 24.5069 5.93702 24.4726 5.85429C24.4383 5.77156 24.423 5.6822 24.4278 5.59277C24.4325 5.50335 24.4572 5.41611 24.5 5.33747L24.61 5.13672C25.224 4.00922 23.9899 2.77653 22.8631 3.39047L22.6623 3.49978C22.5837 3.54262 22.4965 3.56731 22.407 3.57205C22.3176 3.57679 22.2282 3.56146 22.1455 3.52718C22.0628 3.4929 21.9888 3.44054 21.9289 3.37394C21.869 3.30734 21.8248 3.22819 21.7995 3.14228L21.7349 2.92297ZM19.9247 3.11753C20.0938 2.54347 20.9065 2.54347 21.0756 3.11753L21.1402 3.33684C21.1945 3.52115 21.2894 3.69097 21.4179 3.83384C21.5464 3.97671 21.7052 4.08901 21.8828 4.16252C22.0603 4.23602 22.252 4.26887 22.4439 4.25864C22.6358 4.24841 22.8229 4.19537 22.9916 4.10341L23.1917 3.99341C23.717 3.70809 24.2917 4.28216 24.0057 4.80809L23.8964 5.00884C23.8046 5.17757 23.7517 5.36471 23.7415 5.55654C23.7314 5.74838 23.7644 5.94004 23.8379 6.1175C23.9115 6.29495 24.0238 6.4537 24.1667 6.5821C24.3096 6.71051 24.4794 6.80532 24.6636 6.85959L24.8823 6.92422C25.4563 7.09334 25.4563 7.90597 24.8823 8.07509L24.663 8.13972C24.4786 8.19405 24.3088 8.28893 24.166 8.41742C24.0231 8.54591 23.9108 8.70474 23.8373 8.88227C23.7638 9.0598 23.7309 9.25154 23.7412 9.44341C23.7514 9.63529 23.8044 9.82244 23.8964 9.99116L24.0064 10.1912C24.2917 10.7165 23.7176 11.2912 23.1917 11.0052L22.9916 10.8959C22.8229 10.804 22.6357 10.7509 22.4438 10.7408C22.2519 10.7306 22.0601 10.7635 21.8826 10.837C21.705 10.9106 21.5462 11.023 21.4177 11.166C21.2893 11.3089 21.1945 11.4788 21.1402 11.6632L21.0756 11.8818C20.9065 12.4558 20.0938 12.4558 19.9247 11.8818L19.8601 11.6625C19.8057 11.4783 19.7109 11.3085 19.5824 11.1657C19.454 11.0229 19.2952 10.9107 19.1178 10.8372C18.9403 10.7637 18.7487 10.7308 18.5569 10.741C18.3651 10.7511 18.178 10.8041 18.0093 10.8959L17.8086 11.0059C17.2833 11.2912 16.7086 10.7172 16.9946 10.1912L17.1039 9.99116C17.196 9.82242 17.2491 9.6352 17.2594 9.44324C17.2697 9.25128 17.2369 9.05946 17.1634 8.88183C17.0899 8.70421 16.9775 8.5453 16.8346 8.41677C16.6916 8.28823 16.5217 8.19333 16.3373 8.13903L16.118 8.07441C15.544 7.90528 15.544 7.09266 16.118 6.92353L16.3373 6.85891C16.5214 6.80453 16.6911 6.70968 16.8338 6.58129C16.9765 6.45289 17.0887 6.29421 17.1622 6.11686C17.2357 5.9395 17.2686 5.74796 17.2585 5.55624C17.2484 5.36453 17.1956 5.1775 17.1039 5.00884L16.9939 4.80809C16.7086 4.28284 17.2826 3.70809 17.8086 3.99409L18.0093 4.10341C18.178 4.19524 18.3651 4.24818 18.5569 4.25834C18.7487 4.2685 18.9403 4.23563 19.1178 4.16213C19.2952 4.08863 19.454 3.97638 19.5824 3.83358C19.7109 3.69078 19.8057 3.52106 19.8601 3.33684L19.9247 3.11753Z" stroke="#FBFBFB" stroke-width="0.4" mask="url(#path-2-outside-1_637_5708)"/>
</svg>
