<svg width="28" height="28" viewBox="0 0 28 28" fill="none" xmlns="http://www.w3.org/2000/svg">
<path d="M9.98678 5.54306H8.20677C7.14435 5.54306 6.28308 6.40432 6.28308 7.46675V24.9157C6.28308 25.9781 7.14435 26.8394 8.20677 26.8394H18.2483C19.3107 26.8394 20.172 25.9781 20.172 24.9157V7.46675C20.172 6.40433 19.3107 5.54306 18.2483 5.54306H16.0053M9.98678 5.54306V3.76305C9.98678 2.70062 10.8481 1.83936 11.9105 1.83936H14.0816C15.144 1.83936 16.0053 2.70062 16.0053 3.76305V5.54306M9.98678 5.54306H16.0053" stroke="#FBFBFB" stroke-width="1.74973"/>
<rect x="9.4038" y="9.39269" width="7.23368" height="4.98783" rx="1.04882" stroke="#FBFBFB" stroke-width="1.74973"/>
<path d="M20.369 22.21H22.1849C22.7161 22.21 23.1467 21.7794 23.1467 21.2481V12.0607C23.1467 11.5295 22.7161 11.0989 22.1849 11.0989H20.369" stroke="#FBFBFB" stroke-width="1.74973"/>
</svg>
