<svg width="28" height="28" viewBox="0 0 28 28" fill="none" xmlns="http://www.w3.org/2000/svg">
<g clip-path="url(#clip0_637_5925)">
<mask id="path-1-inside-1_637_5925" fill="white">
<path d="M0 0.875C0 0.642936 0.0921873 0.420376 0.256282 0.256282C0.420376 0.0921873 0.642936 0 0.875 0H6.125C6.35706 0 6.57962 0.0921873 6.74372 0.256282C6.90781 0.420376 7 0.642936 7 0.875C7 1.10706 6.90781 1.32962 6.74372 1.49372C6.57962 1.65781 6.35706 1.75 6.125 1.75H1.75V6.125C1.75 6.35706 1.65781 6.57962 1.49372 6.74372C1.32962 6.90781 1.10706 7 0.875 7C0.642936 7 0.420376 6.90781 0.256282 6.74372C0.0921873 6.57962 0 6.35706 0 6.125V0.875Z"/>
<path d="M21 0.875C21 0.642936 21.0922 0.420376 21.2563 0.256282C21.4204 0.0921873 21.6429 0 21.875 0H27.125C27.3571 0 27.5796 0.0921873 27.7437 0.256282C27.9078 0.420376 28 0.642936 28 0.875V6.125C28 6.35706 27.9078 6.57962 27.7437 6.74372C27.5796 6.90781 27.3571 7 27.125 7C26.8929 7 26.6704 6.90781 26.5063 6.74372C26.3422 6.57962 26.25 6.35706 26.25 6.125V1.75H21.875C21.6429 1.75 21.4204 1.65781 21.2563 1.49372C21.0922 1.32962 21 1.10706 21 0.875Z"/>
<path d="M0.875 21C1.10706 21 1.32962 21.0922 1.49372 21.2563C1.65781 21.4204 1.75 21.6429 1.75 21.875V26.25H6.125C6.35706 26.25 6.57962 26.3422 6.74372 26.5063C6.90781 26.6704 7 26.8929 7 27.125C7 27.3571 6.90781 27.5796 6.74372 27.7437C6.57962 27.9078 6.35706 28 6.125 28H0.875C0.642936 28 0.420376 27.9078 0.256282 27.7437C0.0921873 27.5796 0 27.3571 0 27.125V21.875C0 21.6429 0.0921873 21.4204 0.256282 21.2563C0.420376 21.0922 0.642936 21 0.875 21Z"/>
<path d="M27.125 21C27.3571 21 27.5796 21.0922 27.7437 21.2563C27.9078 21.4204 28 21.6429 28 21.875V27.125C28 27.3571 27.9078 27.5796 27.7437 27.7437C27.5796 27.9078 27.3571 28 27.125 28H21.875C21.6429 28 21.4204 27.9078 21.2563 27.7437C21.0922 27.5796 21 27.3571 21 27.125C21 26.8929 21.0922 26.6704 21.2563 26.5063C21.4204 26.3422 21.6429 26.25 21.875 26.25H26.25V21.875C26.25 21.6429 26.3422 21.4204 26.5063 21.2563C26.6704 21.0922 26.8929 21 27.125 21Z"/>
<path d="M7 7H8.75V8.75H7V7Z"/>
<path fill-rule="evenodd" clip-rule="evenodd" d="M12.25 3.5H3.5V12.25H12.25V3.5ZM5.25 5.25H10.5V10.5H5.25V5.25Z"/>
<path d="M8.75 19.25H7V21H8.75V19.25Z"/>
<path fill-rule="evenodd" clip-rule="evenodd" d="M3.5 15.75H12.25V24.5H3.5V15.75ZM10.5 17.5H5.25V22.75H10.5V17.5Z"/>
<path d="M21 7H19.25V8.75H21V7Z"/>
<path fill-rule="evenodd" clip-rule="evenodd" d="M15.75 3.5H24.5V12.25H15.75V3.5ZM17.5 5.25V10.5H22.75V5.25H17.5Z"/>
<path fill-rule="evenodd" clip-rule="evenodd" d="M14 17.5H15.75V19.25H14V21H17.5V17.5H19.25V21H21V19.25H24.5V17.5H19.25V14H14V17.5ZM17.5 17.5H15.75V15.75H17.5V17.5Z"/>
<path d="M24.5 21H22.75V22.75H19.25V24.5H24.5V21Z"/>
<path d="M17.5 24.5V22.75H14V24.5H17.5Z"/>
<path d="M24.5 15.75H21V14H24.5V15.75Z"/>
</mask>
<path d="M0 0.875C0 0.642936 0.0921873 0.420376 0.256282 0.256282C0.420376 0.0921873 0.642936 0 0.875 0H6.125C6.35706 0 6.57962 0.0921873 6.74372 0.256282C6.90781 0.420376 7 0.642936 7 0.875C7 1.10706 6.90781 1.32962 6.74372 1.49372C6.57962 1.65781 6.35706 1.75 6.125 1.75H1.75V6.125C1.75 6.35706 1.65781 6.57962 1.49372 6.74372C1.32962 6.90781 1.10706 7 0.875 7C0.642936 7 0.420376 6.90781 0.256282 6.74372C0.0921873 6.57962 0 6.35706 0 6.125V0.875Z" fill="#FBFBFB"/>
<path d="M21 0.875C21 0.642936 21.0922 0.420376 21.2563 0.256282C21.4204 0.0921873 21.6429 0 21.875 0H27.125C27.3571 0 27.5796 0.0921873 27.7437 0.256282C27.9078 0.420376 28 0.642936 28 0.875V6.125C28 6.35706 27.9078 6.57962 27.7437 6.74372C27.5796 6.90781 27.3571 7 27.125 7C26.8929 7 26.6704 6.90781 26.5063 6.74372C26.3422 6.57962 26.25 6.35706 26.25 6.125V1.75H21.875C21.6429 1.75 21.4204 1.65781 21.2563 1.49372C21.0922 1.32962 21 1.10706 21 0.875Z" fill="#FBFBFB"/>
<path d="M0.875 21C1.10706 21 1.32962 21.0922 1.49372 21.2563C1.65781 21.4204 1.75 21.6429 1.75 21.875V26.25H6.125C6.35706 26.25 6.57962 26.3422 6.74372 26.5063C6.90781 26.6704 7 26.8929 7 27.125C7 27.3571 6.90781 27.5796 6.74372 27.7437C6.57962 27.9078 6.35706 28 6.125 28H0.875C0.642936 28 0.420376 27.9078 0.256282 27.7437C0.0921873 27.5796 0 27.3571 0 27.125V21.875C0 21.6429 0.0921873 21.4204 0.256282 21.2563C0.420376 21.0922 0.642936 21 0.875 21Z" fill="#FBFBFB"/>
<path d="M27.125 21C27.3571 21 27.5796 21.0922 27.7437 21.2563C27.9078 21.4204 28 21.6429 28 21.875V27.125C28 27.3571 27.9078 27.5796 27.7437 27.7437C27.5796 27.9078 27.3571 28 27.125 28H21.875C21.6429 28 21.4204 27.9078 21.2563 27.7437C21.0922 27.5796 21 27.3571 21 27.125C21 26.8929 21.0922 26.6704 21.2563 26.5063C21.4204 26.3422 21.6429 26.25 21.875 26.25H26.25V21.875C26.25 21.6429 26.3422 21.4204 26.5063 21.2563C26.6704 21.0922 26.8929 21 27.125 21Z" fill="#FBFBFB"/>
<path d="M7 7H8.75V8.75H7V7Z" fill="#FBFBFB"/>
<path fill-rule="evenodd" clip-rule="evenodd" d="M12.25 3.5H3.5V12.25H12.25V3.5ZM5.25 5.25H10.5V10.5H5.25V5.25Z" fill="#FBFBFB"/>
<path d="M8.75 19.25H7V21H8.75V19.25Z" fill="#FBFBFB"/>
<path fill-rule="evenodd" clip-rule="evenodd" d="M3.5 15.75H12.25V24.5H3.5V15.75ZM10.5 17.5H5.25V22.75H10.5V17.5Z" fill="#FBFBFB"/>
<path d="M21 7H19.25V8.75H21V7Z" fill="#FBFBFB"/>
<path fill-rule="evenodd" clip-rule="evenodd" d="M15.75 3.5H24.5V12.25H15.75V3.5ZM17.5 5.25V10.5H22.75V5.25H17.5Z" fill="#FBFBFB"/>
<path fill-rule="evenodd" clip-rule="evenodd" d="M14 17.5H15.75V19.25H14V21H17.5V17.5H19.25V21H21V19.25H24.5V17.5H19.25V14H14V17.5ZM17.5 17.5H15.75V15.75H17.5V17.5Z" fill="#FBFBFB"/>
<path d="M24.5 21H22.75V22.75H19.25V24.5H24.5V21Z" fill="#FBFBFB"/>
<path d="M17.5 24.5V22.75H14V24.5H17.5Z" fill="#FBFBFB"/>
<path d="M24.5 15.75H21V14H24.5V15.75Z" fill="#FBFBFB"/>
<path d="M0.256282 0.256282L0.963388 0.963388L0.963388 0.963388L0.256282 0.256282ZM6.74372 0.256282L6.03661 0.963388L6.74372 0.256282ZM1.75 1.75V0.75H0.75V1.75H1.75ZM0.256282 6.74372L0.963388 6.03661L0.256282 6.74372ZM21.2563 0.256282L21.9634 0.963388L21.2563 0.256282ZM27.7437 0.256282L27.0366 0.963388L27.7437 0.256282ZM26.25 1.75H27.25V0.75H26.25V1.75ZM1.75 26.25H0.75V27.25H1.75V26.25ZM0.256282 27.7437L0.963388 27.0366L0.256282 27.7437ZM0.256282 21.2563L0.963388 21.9634L0.256282 21.2563ZM26.25 26.25V27.25H27.25V26.25H26.25ZM8.75 7H9.75V6H8.75V7ZM7 7V6H6V7H7ZM8.75 8.75V9.75H9.75V8.75H8.75ZM7 8.75H6V9.75H7V8.75ZM3.5 3.5V2.5H2.5V3.5H3.5ZM12.25 3.5H13.25V2.5H12.25V3.5ZM3.5 12.25H2.5V13.25H3.5V12.25ZM12.25 12.25V13.25H13.25V12.25H12.25ZM10.5 5.25H11.5V4.25H10.5V5.25ZM5.25 5.25V4.25H4.25V5.25H5.25ZM10.5 10.5V11.5H11.5V10.5H10.5ZM5.25 10.5H4.25V11.5H5.25V10.5ZM7 19.25V18.25H6V19.25H7ZM8.75 19.25H9.75V18.25H8.75V19.25ZM7 21H6V22H7V21ZM8.75 21V22H9.75V21H8.75ZM12.25 15.75H13.25V14.75H12.25V15.75ZM3.5 15.75V14.75H2.5V15.75H3.5ZM12.25 24.5V25.5H13.25V24.5H12.25ZM3.5 24.5H2.5V25.5H3.5V24.5ZM5.25 17.5V16.5H4.25V17.5H5.25ZM10.5 17.5H11.5V16.5H10.5V17.5ZM5.25 22.75H4.25V23.75H5.25V22.75ZM10.5 22.75V23.75H11.5V22.75H10.5ZM19.25 7V6H18.25V7H19.25ZM21 7H22V6H21V7ZM19.25 8.75H18.25V9.75H19.25V8.75ZM21 8.75V9.75H22V8.75H21ZM24.5 3.5H25.5V2.5H24.5V3.5ZM15.75 3.5V2.5H14.75V3.5H15.75ZM24.5 12.25V13.25H25.5V12.25H24.5ZM15.75 12.25H14.75V13.25H15.75V12.25ZM17.5 10.5H16.5V11.5H17.5V10.5ZM17.5 5.25V4.25H16.5V5.25H17.5ZM22.75 10.5V11.5H23.75V10.5H22.75ZM22.75 5.25H23.75V4.25H22.75V5.25ZM14 17.5H13V18.5H14V17.5ZM15.75 19.25V20.25H16.75V19.25H15.75ZM14 19.25V18.25H13V19.25H14ZM14 21H13V22H14V21ZM17.5 21V22H18.5V21H17.5ZM19.25 21H18.25V22H19.25V21ZM21 21V22H22V21H21ZM21 19.25V18.25H20V19.25H21ZM24.5 19.25V20.25H25.5V19.25H24.5ZM24.5 17.5H25.5V16.5H24.5V17.5ZM19.25 14H20.25V13H19.25V14ZM14 14V13H13V14H14ZM15.75 15.75V14.75H14.75V15.75H15.75ZM17.5 15.75H18.5V14.75H17.5V15.75ZM22.75 21V20H21.75V21H22.75ZM24.5 21H25.5V20H24.5V21ZM22.75 22.75V23.75H23.75V22.75H22.75ZM19.25 22.75V21.75H18.25V22.75H19.25ZM19.25 24.5H18.25V25.5H19.25V24.5ZM24.5 24.5V25.5H25.5V24.5H24.5ZM17.5 22.75H18.5V21.75H17.5V22.75ZM17.5 24.5V25.5H18.5V24.5H17.5ZM14 22.75V21.75H13V22.75H14ZM14 24.5H13V25.5H14V24.5ZM21 15.75H20V16.75H21V15.75ZM24.5 15.75V16.75H25.5V15.75H24.5ZM21 14V13H20V14H21ZM24.5 14H25.5V13H24.5V14ZM0.256282 0.256282L-0.450825 -0.450825C-0.802456 -0.0991945 -1 0.377719 -1 0.875H0H1C1 0.908152 0.98683 0.939946 0.963388 0.963388L0.256282 0.256282ZM0.875 0V-1C0.377719 -1 -0.0991945 -0.802456 -0.450825 -0.450825L0.256282 0.256282L0.963388 0.963388C0.939946 0.98683 0.908152 1 0.875 1V0ZM6.125 0V-1H0.875V0V1H6.125V0ZM6.74372 0.256282L7.45083 -0.450825C7.0992 -0.802456 6.62228 -1 6.125 -1V0V1C6.09185 1 6.06005 0.98683 6.03661 0.963388L6.74372 0.256282ZM7 0.875H8C8 0.377718 7.80246 -0.0991949 7.45083 -0.450825L6.74372 0.256282L6.03661 0.963388C6.01317 0.939947 6 0.908153 6 0.875H7ZM6.74372 1.49372L7.45083 2.20083C7.80246 1.8492 8 1.37228 8 0.875H7H6C6 0.841847 6.01317 0.810053 6.03661 0.786612L6.74372 1.49372ZM6.125 1.75V2.75C6.62228 2.75 7.0992 2.55246 7.45083 2.20083L6.74372 1.49372L6.03661 0.786612C6.06005 0.76317 6.09185 0.75 6.125 0.75V1.75ZM1.75 1.75V2.75H6.125V1.75V0.75H1.75V1.75ZM1.75 6.125H2.75V1.75H1.75H0.75V6.125H1.75ZM1.49372 6.74372L2.20083 7.45083C2.55246 7.0992 2.75 6.62228 2.75 6.125H1.75H0.75C0.75 6.09185 0.76317 6.06005 0.786612 6.03661L1.49372 6.74372ZM0.875 7V8C1.37228 8 1.8492 7.80246 2.20083 7.45083L1.49372 6.74372L0.786612 6.03661C0.810053 6.01317 0.841847 6 0.875 6V7ZM0.256282 6.74372L-0.450825 7.45083C-0.0991949 7.80246 0.377718 8 0.875 8V7V6C0.908153 6 0.939947 6.01317 0.963388 6.03661L0.256282 6.74372ZM0 6.125H-1C-1 6.62228 -0.802456 7.0992 -0.450825 7.45083L0.256282 6.74372L0.963388 6.03661C0.98683 6.06005 1 6.09185 1 6.125H0ZM0 0.875H-1V6.125H0H1V0.875H0ZM21.2563 0.256282L20.5492 -0.450825C20.1975 -0.0991932 20 0.377721 20 0.875H21H22C22 0.90815 21.9868 0.939945 21.9634 0.963388L21.2563 0.256282ZM21.875 0V-1C21.3777 -1 20.9008 -0.802456 20.5492 -0.450825L21.2563 0.256282L21.9634 0.963388C21.9399 0.986831 21.9082 1 21.875 1V0ZM27.125 0V-1H21.875V0V1H27.125V0ZM27.7437 0.256282L28.4508 -0.450825C28.0992 -0.802456 27.6223 -1 27.125 -1V0V1C27.0919 1 27.0601 0.986831 27.0366 0.963388L27.7437 0.256282ZM28 0.875H29C29 0.377721 28.8025 -0.0991932 28.4508 -0.450825L27.7437 0.256282L27.0366 0.963388C27.0132 0.939945 27 0.90815 27 0.875H28ZM28 6.125H29V0.875H28H27V6.125H28ZM27.7437 6.74372L28.4508 7.45083C28.8025 7.09919 29 6.62228 29 6.125H28H27C27 6.09185 27.0132 6.06006 27.0366 6.03661L27.7437 6.74372ZM27.125 7V8C27.6223 8 28.0992 7.80246 28.4508 7.45083L27.7437 6.74372L27.0366 6.03661C27.0601 6.01317 27.0919 6 27.125 6V7ZM26.5063 6.74372L25.7992 7.45083C26.1508 7.80246 26.6277 8 27.125 8V7V6C27.1582 6 27.1899 6.01317 27.2134 6.03661L26.5063 6.74372ZM26.25 6.125H25.25C25.25 6.62228 25.4475 7.09919 25.7992 7.45083L26.5063 6.74372L27.2134 6.03661C27.2368 6.06006 27.25 6.09185 27.25 6.125H26.25ZM26.25 1.75H25.25V6.125H26.25H27.25V1.75H26.25ZM21.875 1.75V2.75H26.25V1.75V0.75H21.875V1.75ZM21.2563 1.49372L20.5492 2.20083C20.9008 2.55246 21.3777 2.75 21.875 2.75V1.75V0.75C21.9082 0.75 21.9399 0.763169 21.9634 0.786612L21.2563 1.49372ZM21 0.875H20C20 1.37228 20.1975 1.84919 20.5492 2.20083L21.2563 1.49372L21.9634 0.786612C21.9868 0.810055 22 0.84185 22 0.875H21ZM1.49372 21.2563L2.20083 20.5492C1.84919 20.1975 1.37228 20 0.875 20V21V22C0.84185 22 0.810055 21.9868 0.786612 21.9634L1.49372 21.2563ZM1.75 21.875H2.75C2.75 21.3777 2.55246 20.9008 2.20083 20.5492L1.49372 21.2563L0.786612 21.9634C0.763169 21.9399 0.75 21.9082 0.75 21.875H1.75ZM1.75 26.25H2.75V21.875H1.75H0.75V26.25H1.75ZM6.125 26.25V25.25H1.75V26.25V27.25H6.125V26.25ZM6.74372 26.5063L7.45083 25.7992C7.09919 25.4475 6.62228 25.25 6.125 25.25V26.25V27.25C6.09185 27.25 6.06006 27.2368 6.03661 27.2134L6.74372 26.5063ZM7 27.125H8C8 26.6277 7.80246 26.1508 7.45083 25.7992L6.74372 26.5063L6.03661 27.2134C6.01317 27.1899 6 27.1582 6 27.125H7ZM6.74372 27.7437L7.45083 28.4508C7.80246 28.0992 8 27.6223 8 27.125H7H6C6 27.0919 6.01317 27.0601 6.03661 27.0366L6.74372 27.7437ZM6.125 28V29C6.62228 29 7.09919 28.8025 7.45083 28.4508L6.74372 27.7437L6.03661 27.0366C6.06006 27.0132 6.09185 27 6.125 27V28ZM0.875 28V29H6.125V28V27H0.875V28ZM0.256282 27.7437L-0.450825 28.4508C-0.0991932 28.8025 0.377721 29 0.875 29V28V27C0.90815 27 0.939945 27.0132 0.963388 27.0366L0.256282 27.7437ZM0 27.125H-1C-1 27.6223 -0.802456 28.0992 -0.450825 28.4508L0.256282 27.7437L0.963388 27.0366C0.986831 27.0601 1 27.0919 1 27.125H0ZM0 21.875H-1V27.125H0H1V21.875H0ZM0.256282 21.2563L-0.450825 20.5492C-0.802456 20.9008 -1 21.3777 -1 21.875H0H1C1 21.9082 0.986831 21.9399 0.963388 21.9634L0.256282 21.2563ZM0.875 21V20C0.377721 20 -0.0991932 20.1975 -0.450825 20.5492L0.256282 21.2563L0.963388 21.9634C0.939945 21.9868 0.90815 22 0.875 22V21ZM27.7437 21.2563L28.4508 20.5492C28.0992 20.1975 27.6223 20 27.125 20V21V22C27.0919 22 27.0601 21.9868 27.0366 21.9634L27.7437 21.2563ZM28 21.875H29C29 21.3777 28.8025 20.9008 28.4508 20.5492L27.7437 21.2563L27.0366 21.9634C27.0132 21.9399 27 21.9082 27 21.875H28ZM28 27.125H29V21.875H28H27V27.125H28ZM27.7437 27.7437L28.4508 28.4508C28.8025 28.0992 29 27.6223 29 27.125H28H27C27 27.0919 27.0132 27.0601 27.0366 27.0366L27.7437 27.7437ZM27.125 28V29C27.6223 29 28.0992 28.8025 28.4508 28.4508L27.7437 27.7437L27.0366 27.0366C27.0601 27.0132 27.0919 27 27.125 27V28ZM21.875 28V29H27.125V28V27H21.875V28ZM21.2563 27.7437L20.5492 28.4508C20.9008 28.8025 21.3777 29 21.875 29V28V27C21.9082 27 21.9399 27.0132 21.9634 27.0366L21.2563 27.7437ZM21 27.125H20C20 27.6223 20.1975 28.0992 20.5492 28.4508L21.2563 27.7437L21.9634 27.0366C21.9868 27.0601 22 27.0919 22 27.125H21ZM21.2563 26.5063L20.5492 25.7992C20.1975 26.1508 20 26.6277 20 27.125H21H22C22 27.1582 21.9868 27.1899 21.9634 27.2134L21.2563 26.5063ZM21.875 26.25V25.25C21.3777 25.25 20.9008 25.4475 20.5492 25.7992L21.2563 26.5063L21.9634 27.2134C21.9399 27.2368 21.9082 27.25 21.875 27.25V26.25ZM26.25 26.25V25.25H21.875V26.25V27.25H26.25V26.25ZM26.25 21.875H25.25V26.25H26.25H27.25V21.875H26.25ZM26.5063 21.2563L25.7992 20.5492C25.4475 20.9008 25.25 21.3777 25.25 21.875H26.25H27.25C27.25 21.9082 27.2368 21.9399 27.2134 21.9634L26.5063 21.2563ZM27.125 21V20C26.6277 20 26.1508 20.1975 25.7992 20.5492L26.5063 21.2563L27.2134 21.9634C27.1899 21.9868 27.1582 22 27.125 22V21ZM8.75 7V6H7V7V8H8.75V7ZM8.75 8.75H9.75V7H8.75H7.75V8.75H8.75ZM7 8.75V9.75H8.75V8.75V7.75H7V8.75ZM7 7H6V8.75H7H8V7H7ZM3.5 3.5V4.5H12.25V3.5V2.5H3.5V3.5ZM3.5 12.25H4.5V3.5H3.5H2.5V12.25H3.5ZM12.25 12.25V11.25H3.5V12.25V13.25H12.25V12.25ZM12.25 3.5H11.25V12.25H12.25H13.25V3.5H12.25ZM10.5 5.25V4.25H5.25V5.25V6.25H10.5V5.25ZM10.5 10.5H11.5V5.25H10.5H9.5V10.5H10.5ZM5.25 10.5V11.5H10.5V10.5V9.5H5.25V10.5ZM5.25 5.25H4.25V10.5H5.25H6.25V5.25H5.25ZM7 19.25V20.25H8.75V19.25V18.25H7V19.25ZM7 21H8V19.25H7H6V21H7ZM8.75 21V20H7V21V22H8.75V21ZM8.75 19.25H7.75V21H8.75H9.75V19.25H8.75ZM12.25 15.75V14.75H3.5V15.75V16.75H12.25V15.75ZM12.25 24.5H13.25V15.75H12.25H11.25V24.5H12.25ZM3.5 24.5V25.5H12.25V24.5V23.5H3.5V24.5ZM3.5 15.75H2.5V24.5H3.5H4.5V15.75H3.5ZM5.25 17.5V18.5H10.5V17.5V16.5H5.25V17.5ZM5.25 22.75H6.25V17.5H5.25H4.25V22.75H5.25ZM10.5 22.75V21.75H5.25V22.75V23.75H10.5V22.75ZM10.5 17.5H9.5V22.75H10.5H11.5V17.5H10.5ZM19.25 7V8H21V7V6H19.25V7ZM19.25 8.75H20.25V7H19.25H18.25V8.75H19.25ZM21 8.75V7.75H19.25V8.75V9.75H21V8.75ZM21 7H20V8.75H21H22V7H21ZM24.5 3.5V2.5H15.75V3.5V4.5H24.5V3.5ZM24.5 12.25H25.5V3.5H24.5H23.5V12.25H24.5ZM15.75 12.25V13.25H24.5V12.25V11.25H15.75V12.25ZM15.75 3.5H14.75V12.25H15.75H16.75V3.5H15.75ZM17.5 10.5H18.5V5.25H17.5H16.5V10.5H17.5ZM22.75 10.5V9.5H17.5V10.5V11.5H22.75V10.5ZM22.75 5.25H21.75V10.5H22.75H23.75V5.25H22.75ZM17.5 5.25V6.25H22.75V5.25V4.25H17.5V5.25ZM15.75 17.5V16.5H14V17.5V18.5H15.75V17.5ZM15.75 19.25H16.75V17.5H15.75H14.75V19.25H15.75ZM14 19.25V20.25H15.75V19.25V18.25H14V19.25ZM14 21H15V19.25H14H13V21H14ZM17.5 21V20H14V21V22H17.5V21ZM17.5 17.5H16.5V21H17.5H18.5V17.5H17.5ZM19.25 17.5V16.5H17.5V17.5V18.5H19.25V17.5ZM19.25 21H20.25V17.5H19.25H18.25V21H19.25ZM21 21V20H19.25V21V22H21V21ZM21 19.25H20V21H21H22V19.25H21ZM24.5 19.25V18.25H21V19.25V20.25H24.5V19.25ZM24.5 17.5H23.5V19.25H24.5H25.5V17.5H24.5ZM19.25 17.5V18.5H24.5V17.5V16.5H19.25V17.5ZM19.25 14H18.25V17.5H19.25H20.25V14H19.25ZM14 14V15H19.25V14V13H14V14ZM14 17.5H15V14H14H13V17.5H14ZM15.75 17.5V18.5H17.5V17.5V16.5H15.75V17.5ZM15.75 15.75H14.75V17.5H15.75H16.75V15.75H15.75ZM17.5 15.75V14.75H15.75V15.75V16.75H17.5V15.75ZM17.5 17.5H18.5V15.75H17.5H16.5V17.5H17.5ZM22.75 21V22H24.5V21V20H22.75V21ZM22.75 22.75H23.75V21H22.75H21.75V22.75H22.75ZM19.25 22.75V23.75H22.75V22.75V21.75H19.25V22.75ZM19.25 24.5H20.25V22.75H19.25H18.25V24.5H19.25ZM24.5 24.5V23.5H19.25V24.5V25.5H24.5V24.5ZM24.5 21H23.5V24.5H24.5H25.5V21H24.5ZM17.5 22.75H16.5V24.5H17.5H18.5V22.75H17.5ZM14 22.75V23.75H17.5V22.75V21.75H14V22.75ZM14 24.5H15V22.75H14H13V24.5H14ZM17.5 24.5V23.5H14V24.5V25.5H17.5V24.5ZM21 15.75V16.75H24.5V15.75V14.75H21V15.75ZM21 14H20V15.75H21H22V14H21ZM24.5 14V13H21V14V15H24.5V14ZM24.5 15.75H25.5V14H24.5H23.5V15.75H24.5Z" fill="#FBFBFB" mask="url(#path-1-inside-1_637_5925)"/>
</g>
<defs>
<clipPath id="clip0_637_5925">
<rect width="28" height="28" fill="white"/>
</clipPath>
</defs>
</svg>
