<svg width="28" height="28" viewBox="0 0 28 28" fill="none" xmlns="http://www.w3.org/2000/svg">
<g clip-path="url(#clip0_637_5748)">
<path d="M7 0.5H16.418L24 8.08203V24.5C24 25.2956 23.6837 26.0585 23.1211 26.6211C22.5585 27.1837 21.7956 27.5 21 27.5H7C6.20435 27.5 5.44152 27.1837 4.87891 26.6211C4.3163 26.0585 4 25.2956 4 24.5V3.5C4 2.70435 4.3163 1.94152 4.87891 1.37891C5.44152 0.816297 6.20435 0.5 7 0.5ZM7 1.25C6.40326 1.25 5.83114 1.48722 5.40918 1.90918C4.98722 2.33114 4.75 2.90326 4.75 3.5V24.5C4.75 25.0967 4.98722 25.6689 5.40918 26.0908C5.83114 26.5128 6.40326 26.75 7 26.75H21C21.5967 26.75 22.1689 26.5128 22.5908 26.0908C23.0128 25.6689 23.25 25.0967 23.25 24.5V7.375H19.25C18.6864 7.375 18.1456 7.15144 17.7471 6.75293C17.3486 6.35441 17.125 5.81358 17.125 5.25V1.25H7ZM12.25 10.125H14.3291C15.4726 10.125 16.5692 10.5792 17.3779 11.3877C18.1867 12.1964 18.6416 13.2938 18.6416 14.4375C18.6416 15.5812 18.1867 16.6786 17.3779 17.4873C16.5692 18.2958 15.4726 18.75 14.3291 18.75H11.75V22.75C11.75 22.8495 11.711 22.9453 11.6406 23.0156C11.5703 23.086 11.4745 23.125 11.375 23.125C11.2755 23.125 11.1797 23.086 11.1094 23.0156C11.039 22.9453 11 22.8495 11 22.75V11.375C11 11.0435 11.1318 10.7256 11.3662 10.4912C11.6006 10.2568 11.9185 10.125 12.25 10.125ZM11.75 18H14.3291C14.7969 18 15.2602 17.9075 15.6924 17.7285C16.1243 17.5496 16.517 17.2876 16.8477 16.957C17.1785 16.6262 17.4411 16.233 17.6201 15.8008C17.7991 15.3686 17.8916 14.9053 17.8916 14.4375C17.8916 13.9697 17.7991 13.5064 17.6201 13.0742C17.4411 12.642 17.1785 12.2488 16.8477 11.918C16.517 11.5874 16.1243 11.3254 15.6924 11.1465C15.2602 10.9675 14.7969 10.875 14.3291 10.875H11.75V18Z" fill="#FBFBFB" stroke="#FBFBFB"/>
</g>
<defs>
<clipPath id="clip0_637_5748">
<rect width="28" height="28" fill="white"/>
</clipPath>
</defs>
</svg>
