<svg width="28" height="28" viewBox="0 0 28 28" fill="none" xmlns="http://www.w3.org/2000/svg">
<path d="M11.1925 4.59673C11.298 3.96385 11.8455 3.5 12.4872 3.5H15.5134C16.155 3.5 16.7026 3.96385 16.8081 4.59673L17.0572 6.09128C17.1299 6.52767 17.4215 6.89116 17.8086 7.10542C17.8951 7.15332 17.9807 7.20281 18.0652 7.25383C18.4444 7.48281 18.9056 7.55401 19.3204 7.3986L20.7401 6.86674C21.3409 6.64165 22.0164 6.88393 22.3372 7.43957L23.8504 10.0604C24.1712 10.6161 24.0432 11.3222 23.5479 11.73L22.3762 12.6946C22.0349 12.9755 21.8657 13.4093 21.8739 13.8513C21.8748 13.9007 21.8753 13.9503 21.8753 14C21.8753 14.0497 21.8748 14.0992 21.8739 14.1487C21.8657 14.5906 22.0349 15.0245 22.3762 15.3054L23.5479 16.27C24.0432 16.6778 24.1712 17.3839 23.8504 17.9396L22.3372 20.5604C22.0164 21.1161 21.3409 21.3583 20.7401 21.1332L19.3205 20.6014C18.9056 20.446 18.4444 20.5172 18.0652 20.7462C17.9807 20.7972 17.8951 20.8467 17.8086 20.8946C17.4215 21.1088 17.1299 21.4723 17.0572 21.9087L16.8081 23.4033C16.7026 24.0361 16.155 24.5 15.5134 24.5H12.4872C11.8455 24.5 11.298 24.0361 11.1925 23.4033L10.9434 21.9087C10.8707 21.4723 10.5791 21.1088 10.192 20.8946C10.1055 20.8467 10.0199 20.7972 9.93541 20.7462C9.5562 20.5172 9.09498 20.446 8.68016 20.6014L7.26048 21.1333C6.65966 21.3583 5.98416 21.1161 5.66336 20.5604L4.15022 17.9396C3.82942 17.3839 3.95735 16.6778 4.45269 16.27L5.62443 15.3054C5.96569 15.0245 6.13486 14.5907 6.12667 14.1487C6.12576 14.0993 6.1253 14.0497 6.1253 14C6.1253 13.9503 6.12576 13.9008 6.12667 13.8513C6.13486 13.4094 5.96569 12.9755 5.62443 12.6946L4.45269 11.73C3.95735 11.3222 3.82942 10.6161 4.15022 10.0604L5.66336 7.43959C5.98417 6.88394 6.65966 6.64167 7.26048 6.86676L8.68014 7.39861C9.09496 7.55402 9.55619 7.48282 9.93539 7.25384C10.0199 7.20281 10.1054 7.15332 10.192 7.10542C10.5791 6.89116 10.8707 6.52767 10.9434 6.09128L11.1925 4.59673Z" stroke="#FBFBFB" stroke-width="1.5" stroke-linecap="round" stroke-linejoin="round"/>
<path d="M17.5 13.9999C17.5 15.9329 15.933 17.4999 14 17.4999C12.067 17.4999 10.5 15.9329 10.5 13.9999C10.5 12.0669 12.067 10.4999 14 10.4999C15.933 10.4999 17.5 12.0669 17.5 13.9999Z" stroke="#FBFBFB" stroke-width="1.5" stroke-linecap="round" stroke-linejoin="round"/>
</svg>
